<svg width="859" height="440" viewBox="0 0 859 440" fill="none" xmlns="http://www.w3.org/2000/svg">
<path d="M301.809 121.761C297.518 115.115 291.003 105.652 283.223 95.2819M230.449 38.486C240.474 45.8381 251.239 56.6342 261.444 68.29M261.259 40.6338C261.977 44.958 263.02 56.5432 261.444 68.29M261.444 68.29C269.219 77.1691 276.67 86.5471 283.223 95.2819M261.444 68.29C257.236 69.6508 247.079 72.4686 240.123 72.8531M291.039 71.434C290.421 77.4551 287.993 90.6542 283.223 95.2819M283.223 95.2819C278.879 97.9905 268.504 103.493 261.757 103.832M300 99.6046C303.519 93.208 305.758 79.6696 300.262 65.4612C293.392 47.7006 285.982 65.0207 278.34 60.8595C270.697 56.6982 276.27 34.6184 264.766 24.8426C253.262 15.0667 252.489 36.9475 243.756 33.1114C235.024 29.2754 220.907 5.06049 210.22 19.4936C199.532 33.9267 233.189 56.0759 229.535 60.3544C225.881 64.6329 216.511 67.3744 223.155 79.9385C229.8 92.5025 250.04 81.914 251.691 91.222C253.342 100.53 235.954 119.66 267.158 118.871C283.404 118.46 293.556 110.921 300 99.6046Z" stroke="#B0BEFF" stroke-width="2" stroke-linecap="round" stroke-linejoin="round"/>
<path d="M321.885 100.018C323.59 98.3276 325.762 95.1322 327.562 90.4872M329.511 55.2031C332.544 70.8576 330.577 82.7062 327.562 90.4872M327.562 90.4872C332.19 91.3881 339.522 91.0516 343.11 76.3657C346.699 61.6798 331.666 43.458 322.291 36.9496C323.188 42.6343 323.356 55.959 316.857 63.7804C308.732 73.5572 318.181 88.6761 327.562 90.4872Z" stroke="#68C0E4" stroke-width="2" stroke-linecap="round" stroke-linejoin="round"/>
<path d="M288.156 421.222C-182.293 498.098 30.9772 323.177 178.385 181.68C321.327 37.9549 582.965 8.98708 529.648 113.717C476.33 218.447 504.557 181.68 758.6 207.305C1012.64 232.931 758.606 344.346 288.156 421.222Z" fill="#EEF1FF"/>
</svg>
