<svg width="1388" height="644" viewBox="0 0 1388 644" fill="none" xmlns="http://www.w3.org/2000/svg">
<path d="M465.612 598.594C-294.555 722.702 50.054 440.31 288.24 211.878C519.211 -20.1507 941.974 -66.9163 855.822 102.159C769.67 271.235 815.28 211.878 1225.77 253.248C1636.26 294.618 1225.78 474.485 465.612 598.594Z" fill="#EEF1FF"/>
<path d="M1094.9 441.34C1100.87 432.093 1109.93 418.924 1120.76 404.494M1194.19 325.463C1180.24 335.693 1165.26 350.716 1151.06 366.935M1151.32 328.451C1150.32 334.469 1148.87 350.589 1151.06 366.935M1151.06 366.935C1140.24 379.29 1129.88 392.34 1120.76 404.494M1151.06 366.935C1156.92 368.829 1171.05 372.75 1180.73 373.285M1109.88 371.31C1110.74 379.688 1114.12 398.055 1120.76 404.494M1120.76 404.494C1126.8 408.263 1141.24 415.92 1150.63 416.392M1097.41 410.509C1092.52 401.609 1089.4 382.77 1097.05 362.999C1106.61 338.285 1116.92 362.386 1127.55 356.595C1138.19 350.805 1130.43 320.081 1146.44 306.478C1162.45 292.875 1163.53 323.322 1175.68 317.984C1187.83 312.646 1207.47 278.951 1222.34 299.035C1237.22 319.118 1190.38 349.939 1195.46 355.893C1200.55 361.846 1213.59 365.661 1204.34 383.144C1195.1 400.627 1166.93 385.893 1164.63 398.845C1162.34 411.797 1186.53 438.417 1143.11 437.319C1120.51 436.747 1106.38 426.257 1097.41 410.509Z" stroke="#B0BEFF" stroke-width="4" stroke-linecap="round" stroke-linejoin="round"/>
<path d="M21.2128 427.159C27.4058 430.334 47.1753 428.155 47.1753 428.155C47.1753 428.155 37.4028 410.832 31.2099 407.657C25.0169 404.483 17.7587 406.275 14.9981 411.66C12.2375 417.045 15.0199 423.984 21.2128 427.159Z" stroke="#445AC0" stroke-width="4" stroke-linecap="round" stroke-linejoin="round"/>
<path d="M55.1246 421.307C56.9797 428.015 71.9651 441.092 71.9651 441.092C71.9651 441.092 78.1012 422.173 76.2461 415.466C74.3911 408.758 68.159 404.629 62.3264 406.242C56.4939 407.855 53.2695 414.6 55.1246 421.307Z" stroke="#445AC0" stroke-width="4" stroke-linecap="round" stroke-linejoin="round"/>
<path d="M85.3333 440.203C86.8165 447.002 101.06 460.884 101.06 460.884C101.06 460.884 108.227 442.332 106.744 435.532C105.261 428.733 99.2656 424.267 93.3531 425.556C87.4407 426.846 83.85 433.404 85.3333 440.203Z" stroke="#445AC0" stroke-width="4" stroke-linecap="round" stroke-linejoin="round"/>
<path d="M117.118 463.867C117.434 470.819 129.133 486.904 129.133 486.904C129.133 486.904 139.326 469.825 139.01 462.873C138.694 455.921 133.538 450.508 127.492 450.782C121.447 451.057 116.802 456.915 117.118 463.867Z" stroke="#445AC0" stroke-width="4" stroke-linecap="round" stroke-linejoin="round"/>
<path d="M143.787 493.255C143.482 500.207 153.699 517.271 153.699 517.271C153.699 517.271 165.375 501.17 165.681 494.218C165.986 487.265 161.333 481.413 155.288 481.148C149.242 480.882 144.093 486.302 143.787 493.255Z" stroke="#445AC0" stroke-width="4" stroke-linecap="round" stroke-linejoin="round"/>
<path d="M50.9748 457.041C57.793 455.647 71.86 441.586 71.86 441.586C71.86 441.586 53.4025 434.177 46.5843 435.571C39.7662 436.965 35.2219 442.902 36.4343 448.83C37.6467 454.759 44.1567 458.435 50.9748 457.041Z" stroke="#445AC0" stroke-width="4" stroke-linecap="round" stroke-linejoin="round"/>
<path d="M79.2257 475.654C86.1102 474.637 100.93 461.372 100.93 461.372C100.93 461.372 82.9077 452.958 76.0232 453.975C69.1386 454.992 64.2745 460.669 65.1589 466.656C66.0432 472.642 72.3411 476.671 79.2257 475.654Z" stroke="#445AC0" stroke-width="4" stroke-linecap="round" stroke-linejoin="round"/>
<path d="M105.122 497.781C112.079 497.939 128.923 487.362 128.923 487.362C128.923 487.362 112.578 476.03 105.62 475.872C98.6627 475.714 92.9111 480.49 92.7735 486.54C92.6359 492.59 98.1645 497.623 105.122 497.781Z" stroke="#445AC0" stroke-width="4" stroke-linecap="round" stroke-linejoin="round"/>
<path d="M128.813 525.963C135.728 526.741 153.448 517.709 153.448 517.709C153.448 517.709 138.179 504.964 131.264 504.186C124.348 503.407 118.193 507.651 117.516 513.665C116.84 519.678 121.897 525.184 128.813 525.963Z" stroke="#445AC0" stroke-width="4" stroke-linecap="round" stroke-linejoin="round"/>
<path d="M175 559.678C166.176 531.324 128.128 465.299 46.5262 428.027" stroke="#445AC0" stroke-width="4" stroke-linecap="round" stroke-linejoin="round"/>
<path d="M1075.76 542.436C1078.89 536.115 1085.79 527.094 1097.08 517.77M1193.67 479.633C1147.2 485.681 1115.98 502.15 1097.08 517.77M1097.08 517.77C1090.27 505.699 1084.42 484.938 1122.05 461.318C1159.68 437.699 1224.43 462.737 1251.27 482.852C1234.59 485.619 1197.27 497.499 1181.48 522.874C1161.74 554.594 1110.82 542.254 1097.08 517.77Z" stroke="#68C0E4" stroke-width="4" stroke-linecap="round" stroke-linejoin="round"/>
<path d="M123.3 430.568C124.184 426.428 124.305 419.615 122.476 411.023M91.2879 357.074C110.878 377.246 119.413 396.63 122.476 411.023M122.476 411.023C130.175 407.884 140.67 400.309 131.787 375.173C122.905 350.037 83.1294 337.661 63.0112 337.108C69.8226 344.631 82.9354 364.131 80.8952 381.948C78.3449 404.219 106.885 417.407 122.476 411.023Z" stroke="#68C0E4" stroke-width="4" stroke-linecap="round" stroke-linejoin="round"/>
</svg>
